<?xml version="1.0" encoding="iso-8859-1"?>
<!-- Generator: Adobe Illustrator 19.0.0, SVG Export Plug-In . SVG Version: 6.00 Build 0)  -->
<svg xmlns="http://www.w3.org/2000/svg" xmlns:xlink="http://www.w3.org/1999/xlink" version="1.1" id="Layer_1" x="0px" y="0px" viewBox="0 0 512.001 512.001" style="enable-background:new 0 0 512.001 512.001;" xml:space="preserve" width="512" height="512">
<g>
	<path d="M422.001,211h-212v211h212V211z M271.001,332h-30v-30h30V332z M331.001,362h-30v-30h30V362z M331.001,302h-30v-30h30V302z    M391.001,392h-30v-30h30V392z M391.001,332h-30v-30h30V332z M391.001,272h-30v-30h30V272z"/>
	<path d="M180.001,343.466V90c0-49.706-40.294-90-90-90s-90,40.294-90,90v253.466C22.01,318.271,53.987,302,90.001,302   S157.991,318.271,180.001,343.466z"/>
	<path d="M90.001,407c-8.262,0-15,6.724-15,15s6.738,15,15,15s15-6.724,15-15S98.262,407,90.001,407z"/>
	<path d="M210.001,121v60h242v271H205.738c-6.152,23.677-19.519,44.319-37.313,60h343.576V121H210.001z"/>
	<path d="M178.316,404.365c-6.72-35.182-35.5-63.961-70.679-70.679C44.334,321.6-10.4,376.332,1.685,439.635   c6.72,35.182,35.5,63.961,70.679,70.679C135.667,522.401,190.401,467.669,178.316,404.365z M90.001,467c-24.814,0-45-20.186-45-45   s20.186-45,45-45s45,20.186,45,45S114.815,467,90.001,467z"/>
</g>















</svg>
