<?xml version="1.0" encoding="iso-8859-1"?>
<!-- Generator: Adobe Illustrator 19.0.0, SVG Export Plug-In . SVG Version: 6.00 Build 0)  -->
<svg xmlns="http://www.w3.org/2000/svg" xmlns:xlink="http://www.w3.org/1999/xlink" version="1.1" id="Layer_1" x="0px" y="0px" viewBox="0 0 512 512" style="enable-background:new 0 0 512 512;" xml:space="preserve" width="512" height="512">
<g>
	<path d="M256,300c-24.814,0-45,20.186-45,45s20.186,45,45,45s45-20.186,45-45S280.814,300,256,300z"/>
	<path d="M394.516,207.759l28.564-52.896c17.725-32.856,16.875-71.602-2.256-103.667C401.693,19.146,367.973,0,330.648,0H181.352   c-37.324,0-71.045,19.146-90.176,51.196c-19.131,32.065-19.98,70.811-2.227,103.682l28.535,52.881   C81.449,244.146,61,293.511,61,345c0,65.479,32.578,128.211,87.188,164.495l3.75,2.505h208.125l3.75-2.505   C418.422,473.211,451,410.479,451,345C451,293.511,430.551,244.146,394.516,207.759z M256,420c-41.367,0-75-33.647-75-75   s33.633-75,75-75s75,33.647,75,75S297.367,420,256,420z M345.473,172.275c-55.393-28.429-123.611-28.359-178.956-0.018   l-35.819-66.334L168.959,60h174.082l38.262,45.923L345.473,172.275z"/>
</g>















</svg>
