<?xml version="1.0" encoding="iso-8859-1"?>
<!-- Generator: Adobe Illustrator 19.0.0, SVG Export Plug-In . SVG Version: 6.00 Build 0)  -->
<svg xmlns="http://www.w3.org/2000/svg" xmlns:xlink="http://www.w3.org/1999/xlink" version="1.1" id="Layer_1" x="0px" y="0px" viewBox="0 0 512 512" style="enable-background:new 0 0 512 512;" xml:space="preserve" width="512" height="512">
<g>
	<path d="M165,330.388c-4.955,0.328-9.928,0.612-15,0.612c-63.322,0-118.015-25.95-150-66.048V286   c0,75.364,50.859,138.946,120,158.602V421h30v29.24c4.948,0.449,9.939,0.76,15,0.76h15v-60h30v60h30v-30h30v30h30v-60h30v60h30V331   H165V330.388z"/>
	<path d="M150,226c40.664,0,75-20.61,75-45s-34.336-45-75-45s-75,20.61-75,45S109.336,226,150,226z M105,166h90v30h-90V166z"/>
	<path d="M150,301c84.111,0,150-52.705,150-120S234.111,61,150,61S0,113.705,0,181S65.889,301,150,301z M150,106   c58.887,0,105,32.944,105,75s-46.113,75-105,75S45,223.056,45,181S91.113,106,150,106z"/>
	<path d="M258.922,301H330V196h-1.044C323.972,239.301,297.85,276.636,258.922,301z"/>
	<path d="M390,331v120h122V331H390z M467,406h-30v-30h30V406z"/>
</g>















</svg>
