<?xml version="1.0" encoding="iso-8859-1"?>
<!-- Generator: Adobe Illustrator 19.0.0, SVG Export Plug-In . SVG Version: 6.00 Build 0)  -->
<svg xmlns="http://www.w3.org/2000/svg" xmlns:xlink="http://www.w3.org/1999/xlink" version="1.1" id="Layer_1" x="0px" y="0px" viewBox="0 0 512 512" style="enable-background:new 0 0 512 512;" xml:space="preserve" width="512" height="512">
<g>
	<polygon points="422,361 511.282,361 511.802,121 422,121  "/>
	<polygon points="422,31 422,91 511.868,91 512,31  "/>
	<polygon points="467,512 507.818,391 426.911,391  "/>
	<rect x="90" y="391" width="30" height="30"/>
	<rect x="90" y="151" width="30" height="30"/>
	<rect x="120" width="152" height="61"/>
	<rect x="90" y="271" width="30" height="30"/>
	<path d="M302,91H90V31H0v481h392V31h-90V91z M150,451H60v-90h90V451z M150,331H60v-90h90V331z M150,211H60v-90h90V211z M332,451   H181v-30h151V451z M332,391H181v-30h151V391z M332,331H181v-30h151V331z M332,271H181v-30h151V271z M332,211H181v-30h151V211z    M332,151H181v-30h151V151z"/>
</g>















</svg>
