<?xml version="1.0" encoding="iso-8859-1"?>
<!-- Generator: Adobe Illustrator 19.0.0, SVG Export Plug-In . SVG Version: 6.00 Build 0)  -->
<svg xmlns="http://www.w3.org/2000/svg" xmlns:xlink="http://www.w3.org/1999/xlink" version="1.1" id="Layer_1" x="0px" y="0px" viewBox="0 0 512 512" style="enable-background:new 0 0 512 512;" xml:space="preserve" width="512" height="512">
<g>
	<path d="M256,241c-8.262,0-15,6.724-15,15s6.738,15,15,15s15-6.724,15-15S264.262,241,256,241z"/>
	<path d="M256,181c-41.367,0-75,33.647-75,75s33.633,75,75,75s75-33.647,75-75S297.367,181,256,181z M256,301   c-24.814,0-45-20.186-45-45s20.186-45,45-45s45,20.186,45,45S280.814,301,256,301z"/>
	<path d="M256,91c-90.967,0-165,74.019-165,165s74.033,165,165,165s165-74.019,165-165S346.967,91,256,91z M256,361   c-57.891,0-105-47.109-105-105s47.109-105,105-105s105,47.109,105,105S313.891,361,256,361z"/>
	<path d="M256,0C115.404,0,0,115.39,0,256s115.404,256,256,256s256-115.39,256-256S396.596,0,256,0z M256,451   c-107.52,0-195-87.48-195-195S148.48,61,256,61s195,87.48,195,195S363.52,451,256,451z"/>
</g>















</svg>
