<?xml version="1.0" encoding="iso-8859-1"?>
<!-- Generator: Adobe Illustrator 19.0.0, SVG Export Plug-In . SVG Version: 6.00 Build 0)  -->
<svg xmlns="http://www.w3.org/2000/svg" xmlns:xlink="http://www.w3.org/1999/xlink" version="1.1" id="Layer_1" x="0px" y="0px" viewBox="0 0 512 512" style="enable-background:new 0 0 512 512;" xml:space="preserve" width="512" height="512">
<g>
	<path d="M391,158.211V122h-30V0h-30v122h-30v36.211C230.775,178.089,181,242.996,181,317c0,90.981,74.033,165,165,165   s166-74.019,166-165C512,242.996,461.225,178.089,391,158.211z M346,422c-57.891,0-105-47.109-105-105s47.109-105,105-105   s106,47.109,106,105S403.891,422,346,422z"/>
	<path d="M271,317c0,34.175,23.108,62.765,54.434,71.772C328.942,375.403,331,361.454,331,347c0-33.43-10.569-64.722-28.176-91.128   C283.634,269.471,271,291.744,271,317z"/>
	<path d="M166,452c-57.891,0-106-47.109-106-105s48.109-105,106-105c0.205,0,0.396,0.059,0.597,0.06   c10.287-24.483,25.408-46.478,44.403-64.894V152h-30V0h-30v152h-30v36.211C50.775,208.089,0,272.996,0,347   c0,90.981,75.033,165,166,165c31.458,0,60.791-9.012,85.836-24.359c-19.618-10.869-37.057-25.102-51.808-41.79   C189.298,449.561,177.975,452,166,452z"/>
</g>















</svg>
