<?xml version="1.0" encoding="iso-8859-1"?>
<!-- Generator: Adobe Illustrator 19.0.0, SVG Export Plug-In . SVG Version: 6.00 Build 0)  -->
<svg xmlns="http://www.w3.org/2000/svg" xmlns:xlink="http://www.w3.org/1999/xlink" version="1.1" id="Layer_1" x="0px" y="0px" viewBox="0 0 512 512" style="enable-background:new 0 0 512 512;" xml:space="preserve" width="512" height="512">
<g>
	<path d="M422,332c-49.629,0-90,40.371-90,90s40.371,90,90,90s90-40.371,90-90S471.629,332,422,332z M467,437h-60v-60h30v30h30V437z   "/>
	<rect x="60" width="30" height="30"/>
	<rect x="120" width="30" height="30"/>
	<rect x="181" width="30" height="30"/>
	<rect x="241" width="30" height="30"/>
	<rect x="302" width="30" height="30"/>
	<rect x="362" width="30" height="30"/>
	<polygon points="452,30 392,30 392,90 362,90 362,30 332,30 332,90 302,90 302,30 271,30 271,90 241,90 241,30 211,30 211,90    181,90 181,30 150,30 150,90 120,90 120,30 90,30 90,90 60,90 60,30 0,30 0,120 452,120  "/>
	<path d="M422,302c10.422,0,20.354,1.752,30,4.259V150H0v302h306.263c-2.509-9.646-4.263-19.581-4.263-30   C302,355.833,355.818,302,422,302z M302,181h90v90h-90V181z M150,392H60v-90h90V392z M150,271H60v-90h90V271z M271,392h-90v-90h90   V392z M271,271h-90v-90h90V271z"/>
	<rect x="90" y="332" width="30" height="30"/>
	<rect x="332" y="211" width="30" height="30"/>
	<rect x="211" y="211" width="30" height="30"/>
	<rect x="90" y="211" width="30" height="30"/>
	<rect x="211" y="332" width="30" height="30"/>
</g>















</svg>
