<?xml version="1.0" encoding="iso-8859-1"?>
<!-- Generator: Adobe Illustrator 19.0.0, SVG Export Plug-In . SVG Version: 6.00 Build 0)  -->
<svg xmlns="http://www.w3.org/2000/svg" xmlns:xlink="http://www.w3.org/1999/xlink" version="1.1" id="Layer_1" x="0px" y="0px" viewBox="0 0 512 512" style="enable-background:new 0 0 512 512;" xml:space="preserve" width="512" height="512">
<g>
	<path d="M296.488,209.433c-11.221-2.285-21.68,5.42-28.623,21.284l-13.74,31.582l-13.74-31.582   c-6.094-13.96-14.883-21.621-24.58-21.621c-1.289,0-2.607,0.132-3.926,0.41c-8.613,1.787-17.754,10.181-17.754,22.192   c0,20.832,43.074,49.966,60,63.296c16.926-13.33,60-42.464,60-63.296C314.125,219.481,305.248,211.249,296.488,209.433z"/>
	<path d="M346,91H166c-24.814,0-45,20.186-45,45v240c0,24.814,20.186,45,45,45h180c24.814,0,45-20.186,45-45V136   C391,111.186,370.814,91,346,91z M254.125,333.329c-55.151-44.037-90-64.878-90-101.631c0-24.858,17.52-46.538,41.66-51.563   c14.795-3.12,33.516,0.469,48.34,16.758c14.824-16.333,33.516-19.907,48.486-16.831c24.053,5.01,41.514,26.719,41.514,51.636   C344.125,268.594,308.822,289.657,254.125,333.329z"/>
	<path d="M484.93,141.713l-26.777,13.477C473.973,186.654,482,220.565,482,256s-8.027,69.346-23.848,100.811l26.777,13.477   C502.889,334.604,512,296.151,512,256S502.889,177.396,484.93,141.713z"/>
	<path d="M27.07,141.713C9.111,177.396,0,215.849,0,256s9.111,78.604,27.07,114.287l26.777-13.477C38.027,325.346,30,291.435,30,256   s8.027-69.346,23.848-100.811L27.07,141.713z"/>
	<path d="M417.518,217.65C420.477,230.16,422,243.065,422,256s-1.523,25.84-4.482,38.35l29.18,6.943   C450.213,286.513,452,271.278,452,256s-1.787-30.513-5.303-45.293L417.518,217.65z"/>
	<path d="M65.303,210.707C61.787,225.487,60,240.722,60,256s1.787,30.513,5.303,45.293l29.18-6.943C91.523,281.84,90,268.935,90,256   s1.523-25.84,4.482-38.35L65.303,210.707z"/>
	<polygon points="178.543,492.065 185.19,512 326.81,512 346.817,451 165.183,451  "/>
	<polygon points="326.811,0 185.189,0 165.183,61 346.817,61  "/>
</g>















</svg>
