<?xml version="1.0" encoding="iso-8859-1"?>
<!-- Generator: Adobe Illustrator 19.0.0, SVG Export Plug-In . SVG Version: 6.00 Build 0)  -->
<svg xmlns="http://www.w3.org/2000/svg" xmlns:xlink="http://www.w3.org/1999/xlink" version="1.1" id="Layer_1" x="0px" y="0px" viewBox="0 0 512 512" style="enable-background:new 0 0 512 512;" xml:space="preserve" width="512" height="512">
<g>
	<path d="M271,392h210V91H271V392z M301,121h120v30H301V121z M301,181h120v30H301V181z M301,271h30v30h-30V271z"/>
	<path d="M31,422c0,27.692,0,61.826,0,90h30v-30h180v-60H31z"/>
	<rect x="31" width="450" height="61"/>
	<path d="M241,91H31v301h210V91z M121,301H91v-30h30V301z M211,211H91v-30h120V211z M211,151H91v-30h120V151z"/>
	<path d="M271,482h180v30h30c0-27.984,0-62.131,0-90H271V482z"/>
	<rect x="241" y="482" width="30" height="30"/>
</g>















</svg>
