<?xml version="1.0" encoding="iso-8859-1"?>
<!-- Generator: Adobe Illustrator 19.0.0, SVG Export Plug-In . SVG Version: 6.00 Build 0)  -->
<svg xmlns="http://www.w3.org/2000/svg" xmlns:xlink="http://www.w3.org/1999/xlink" version="1.1" id="Layer_1" x="0px" y="0px" viewBox="0 0 512 512" style="enable-background:new 0 0 512 512;" xml:space="preserve" width="512" height="512">
<g>
	<rect x="210" y="210" width="60" height="212"/>
	<path d="M0,467c0,24.814,20.186,45,45,45h180c24.814,0,45-20.186,45-45v-15H0V467z"/>
	<rect y="210" width="180" height="212"/>
	<path d="M512,0C434.623,0,58.548,0,0,0v30h98.789L0,128.789V180h270v-51.211L171.211,30H392v270h90V30h30V0z M120,51.211V120   H51.211L120,51.211z M150,120V51.211L218.789,120H150z"/>
	<rect x="392" y="330" width="90" height="62"/>
	<rect x="392" y="422" width="90" height="90"/>
</g>















</svg>
