<?xml version="1.0" encoding="iso-8859-1"?>
<!-- Generator: Adobe Illustrator 19.0.0, SVG Export Plug-In . SVG Version: 6.00 Build 0)  -->
<svg xmlns="http://www.w3.org/2000/svg" xmlns:xlink="http://www.w3.org/1999/xlink" version="1.1" id="Layer_1" x="0px" y="0px" viewBox="0 0 512 512" style="enable-background:new 0 0 512 512;" xml:space="preserve" width="512" height="512">
<g>
	<rect x="90" y="452" width="31" height="60"/>
	<path d="M256,422c8.262,0,15-6.724,15-15s-6.738-15-15-15s-15,6.724-15,15S247.738,422,256,422z"/>
	<path d="M151,512h210V242H151V512z M211,302h90v30h-90V302z M256,362c24.814,0,45,20.186,45,45s-20.186,45-45,45s-45-20.186-45-45   S231.186,362,256,362z"/>
	<rect x="90" y="332" width="31" height="90"/>
	<rect x="90" y="242" width="31" height="60"/>
	<rect x="391" y="242" width="31" height="60"/>
	<rect x="391" y="452" width="31" height="60"/>
	<path d="M467,242h-15c0,46.463,0,47.514,0,270h15c24.814,0,45-20.186,45-45V287C512,262.186,491.814,242,467,242z"/>
	<path d="M0,287v180c0,24.814,20.186,45,45,45h15c0-24.981,0-270,0-270H45C20.186,242,0,262.186,0,287z"/>
	<rect x="391" y="332" width="31" height="90"/>
	<path d="M256,0c-75.703,0-135,94.241-135,212h30c0-97.573,48.076-182,105-182s105,84.427,105,182h30C391,94.241,331.703,0,256,0z"/>
</g>















</svg>
