<?xml version="1.0" encoding="iso-8859-1"?>
<!-- Generator: Adobe Illustrator 19.0.0, SVG Export Plug-In . SVG Version: 6.00 Build 0)  -->
<svg xmlns="http://www.w3.org/2000/svg" xmlns:xlink="http://www.w3.org/1999/xlink" version="1.1" id="Layer_1" x="0px" y="0px" viewBox="0 0 512 512" style="enable-background:new 0 0 512 512;" xml:space="preserve" width="512" height="512">
<g>
	<path d="M0,268.681v30h81.222c-8.899-9.99-17.021-19.962-23.679-30H0z"/>
	<path d="M454.457,268.681c-6.658,10.038-14.78,20.01-23.679,30H512v-30H454.457z"/>
	<path d="M166,146.249l49.541,148.594l17.432-26.162h43.037l40.723-97.72l43.975,97.72h93.75   C471.479,243.039,481,216.673,481,186.62c0-61.978-40.928-114.976-97.295-125.991C333.197,50.741,286.996,76.874,256,131.264   c-30.938-54.199-76.934-80.171-127.354-70.415C72.982,71.733,31,125.8,31,186.62c0,30.053,9.521,56.418,26.543,82.061h67.646   L166,146.249z"/>
	<path d="M317.787,246.401l-21.797,52.28h-46.963l-42.568,63.838L166,241.113l-19.189,57.568H81.222   c27.744,31.15,65.42,62.893,110.706,100.664C209.008,413.583,256,453.427,256,453.427s46.992-39.844,64.072-54.082   c45.286-37.771,82.961-69.514,110.706-100.664h-89.465L317.787,246.401z"/>
</g>















</svg>
