<?xml version="1.0" encoding="iso-8859-1"?>
<!-- Generator: Adobe Illustrator 19.0.0, SVG Export Plug-In . SVG Version: 6.00 Build 0)  -->
<svg xmlns="http://www.w3.org/2000/svg" xmlns:xlink="http://www.w3.org/1999/xlink" version="1.1" id="Layer_1" x="0px" y="0px" viewBox="0 0 512 512" style="enable-background:new 0 0 512 512;" xml:space="preserve" width="512" height="512">
<g>
	<path d="M31,452v15c0,24.814,20.186,45,45,45h224.7l-8.569-60H31z"/>
	<polygon points="301,301 307.431,346 474.569,346 481,301  "/>
	<polygon points="331,512 451,512 470.285,376 311.715,376  "/>
	<rect x="61" width="270" height="61"/>
	<path d="M301,122.518V91H91v31.518c-29.348,5.98-52.504,29.139-58.484,58.482h326.968C353.504,151.657,330.348,128.498,301,122.518   z"/>
	<path d="M266.43,271H361v-60H31v211h256.849L266.43,271z M209.916,396.566l-27.832-11.133L203.852,331h-60l38.232-95.566   l27.832,11.133L188.148,301h60L209.916,396.566z"/>
</g>















</svg>
