<?xml version="1.0" encoding="iso-8859-1"?>
<!-- Generator: Adobe Illustrator 19.0.0, SVG Export Plug-In . SVG Version: 6.00 Build 0)  -->
<svg xmlns="http://www.w3.org/2000/svg" xmlns:xlink="http://www.w3.org/1999/xlink" version="1.1" id="Layer_1" x="0px" y="0px" viewBox="0 0 512 512" style="enable-background:new 0 0 512 512;" xml:space="preserve" width="512" height="512">
<g>
	<path d="M494.213,165.788c-7.837-20.614-18.193-39.941-30.828-57.612C438.714,146.322,381.83,181,256,181   c-107.776,0-176.81-24.796-207.195-73.076c-12.927,18.027-23.474,37.784-31.388,58.878C57.323,208.794,129.071,241,256,241   C366.493,241,447.294,214.902,494.213,165.788z"/>
	<path d="M256,151c96.797,0,160.43-21.328,184.014-61.655c1.216-2.08,1.718-4.299,2.703-6.429   c-12.268-13.224-25.818-25.199-40.62-35.592c-0.795,1.637-1.567,3.349-2.454,4.697C376.527,87.206,291.479,91,256,91   c-45.205,0-124.16-5.317-144.814-40.913c-0.469-0.804-0.798-1.906-1.23-2.802C95.102,57.71,81.508,69.729,69.203,83.002   c0.974,2.102,1.582,4.274,2.783,6.328C95.57,129.672,159.174,151,256,151z"/>
	<path d="M6.043,306.358c5.782,28.757,16.615,55.633,31.216,80.026C100.287,409.331,173.507,421,256,421   s155.735-11.713,218.774-34.669c14.615-24.437,25.444-51.368,31.216-80.184C448.942,337.449,368.709,361,256,361   C155.384,361,71.767,342.559,6.043,306.358z"/>
	<path d="M67.742,427.39C114.416,478.61,181.417,512,256,512c74.495,0,141.423-33.313,188.09-84.425   C387.689,443.088,324.837,451,256,451C187.042,451,124.208,442.953,67.742,427.39z"/>
	<path d="M504.254,198.64C459.635,238.134,384.035,271,256,271c-126.804,0-202.705-31.833-248.24-72.413   C3.483,217.072,0,236.234,0,256c0,4.2,0.428,8.293,0.63,12.444C64.248,309.758,150.29,331,256,331   c104.758,0,191.767-21.683,255.377-62.721C511.575,264.183,512,260.146,512,256C512,236.252,508.524,217.108,504.254,198.64z"/>
	<path d="M256,61c59.004,0,108.867-10.708,118.564-25.444c0.524-0.802,1.263-2.216,1.315-4.488C340.111,11.928,299.319,0,256,0   c-43.345,0-84.159,11.937-119.941,31.097c0.048,2.04,0.696,3.276,1.084,3.931C145.873,50.072,195.854,61,256,61z"/>
</g>















</svg>
