<?xml version="1.0" encoding="iso-8859-1"?>
<!-- Generator: Adobe Illustrator 19.0.0, SVG Export Plug-In . SVG Version: 6.00 Build 0)  -->
<svg xmlns="http://www.w3.org/2000/svg" xmlns:xlink="http://www.w3.org/1999/xlink" version="1.1" id="Layer_1" x="0px" y="0px" viewBox="0 0 512 512" style="enable-background:new 0 0 512 512;" xml:space="preserve" width="512" height="512">
<g>
	<path d="M467,0H45C20.186,0,0,20.186,0,45v422c0,24.814,20.186,45,45,45h422c24.814,0,45-20.186,45-45V45   C512,20.186,491.814,0,467,0z M452,452H60V120h65.193l-7.533-22.603l24.287-12.144c71.426-35.713,156.68-35.713,228.105,0   l24.287,12.144L386.807,120H452V452z"/>
	<path d="M355.492,213.955l-18.838-6.255c-52.061-17.344-109.336-17.329-161.279-0.015l-18.867,6.27L135.194,150H90v272h151V241.604   h30V422h151V150h-45.194L355.492,213.955z M211,392h-90v-30h90V392z M211,332h-90v-30h90V332z M211,272h-90v-30h90V272z M391,392   h-90v-30h90V392z M391,332h-90v-30h90V332z M391,272h-90v-30h90V272z"/>
	<path d="M241,165.756V120h30v45.756c22.112,1.157,44.143,4.191,65.449,10.45l21.211-63.604l-1.025-0.513   c-62.988-31.523-138.281-31.523-201.27,0l-1.025,0.513l21.211,63.604C196.835,169.948,218.881,166.912,241,165.756z"/>
</g>















</svg>
