<?xml version="1.0" encoding="iso-8859-1"?>
<!-- Generator: Adobe Illustrator 19.0.0, SVG Export Plug-In . SVG Version: 6.00 Build 0)  -->
<svg xmlns="http://www.w3.org/2000/svg" xmlns:xlink="http://www.w3.org/1999/xlink" version="1.1" id="Layer_1" x="0px" y="0px" viewBox="0 0 512 512" style="enable-background:new 0 0 512 512;" xml:space="preserve" width="512" height="512">
<path d="M392.025,226.041L511.99,231l0.01-85.485l-19.852-19.597L512,104.705L407.295,0l-21.213,19.852L366.485,0L281,0.01  l4.959,119.965L119.975,285.959L0.01,281L0,366.485l19.852,19.597L0,407.295L104.705,512l21.213-19.852L145.515,512L231,511.99  l-4.959-119.965L392.025,226.041z M147.131,301.229l154.098-154.098l21.213,21.213L168.344,322.442L147.131,301.229z   M343.656,189.558l21.213,21.213L210.771,364.869l-21.213-21.213L343.656,189.558z M157.945,482.003l-10.814-11.068l21.213-21.213  L62.278,343.656l-21.213,21.213l-11.068-10.814l-0.01-41.795l89.473,3.724l76.556,76.556l3.724,89.473L157.945,482.003z   M354.055,29.997l10.814,11.068l-21.213,21.213l106.066,106.066l21.213-21.213l11.068,10.814l0.01,41.795l-89.473-3.724  l-76.556-76.556l-3.724-89.473L354.055,29.997z"/>















</svg>
