<?xml version="1.0" encoding="iso-8859-1"?>
<!-- Generator: Adobe Illustrator 19.0.0, SVG Export Plug-In . SVG Version: 6.00 Build 0)  -->
<svg xmlns="http://www.w3.org/2000/svg" xmlns:xlink="http://www.w3.org/1999/xlink" version="1.1" id="Layer_1" x="0px" y="0px" viewBox="0 0 512 512" style="enable-background:new 0 0 512 512;" xml:space="preserve" width="512" height="512">
<g>
	<rect x="106" width="300" height="60"/>
	<path d="M406,90H106v271h300V90z M254.125,303.329c-55.146-44.031-90-64.881-90-101.631c0-24.858,17.52-46.538,41.66-51.563   c14.795-3.076,33.516,0.454,48.34,16.758c14.824-16.348,33.545-19.907,48.486-16.831c24.053,5.01,41.514,26.719,41.514,51.636   C344.125,238.595,308.822,259.657,254.125,303.329z"/>
	<path d="M296.488,179.433c-11.221-2.344-21.68,5.42-28.623,21.284l-13.74,31.582l-13.74-31.582   c-6.094-13.96-14.883-21.621-24.58-21.621c-10.905,0-21.68,9.726-21.68,22.603c0,20.832,43.074,49.967,60,63.296   c16.926-13.329,60-42.464,60-63.296C314.125,189.481,305.248,181.249,296.488,179.433z"/>
	<path d="M106,391v121h300V391H106z M271,452h-30v-30h30V452z"/>
</g>















</svg>
