<?xml version="1.0" encoding="iso-8859-1"?>
<!-- Generator: Adobe Illustrator 19.0.0, SVG Export Plug-In . SVG Version: 6.00 Build 0)  -->
<svg xmlns="http://www.w3.org/2000/svg" xmlns:xlink="http://www.w3.org/1999/xlink" version="1.1" id="Layer_1" x="0px" y="0px" viewBox="0 0 512 512" style="enable-background:new 0 0 512 512;" xml:space="preserve" width="512" height="512">
<g>
	<path d="M255.473,181c41.66,0,75.527-33.94,75.527-75.674V15c0,41.353-33.633,75-75,75s-75-33.647-75-75v91.513   C181,147.587,214.398,181,255.473,181z"/>
	<rect x="181" y="301" width="150" height="90"/>
	<path d="M466,181c-24.814,0-45-20.186-45-45V0h-60v105.326C361,163.598,313.656,211,255.473,211   C197.875,211,151,164.125,151,106.513V0H91v136c0,24.814-20.186,45-45,45H31v331h450V181H466z M361,421H151V271h210V421z"/>
</g>















</svg>
