<?xml version="1.0" encoding="iso-8859-1"?>
<!-- Generator: Adobe Illustrator 19.0.0, SVG Export Plug-In . SVG Version: 6.00 Build 0)  -->
<svg xmlns="http://www.w3.org/2000/svg" xmlns:xlink="http://www.w3.org/1999/xlink" version="1.1" id="Layer_1" x="0px" y="0px" viewBox="0 0 512.227 512.227" style="enable-background:new 0 0 512.227 512.227;" xml:space="preserve" width="512" height="512">
<g>
	<path d="M91.113,166.113v-45H25.712l-6.427,90h26.829C70.928,211.113,91.113,190.928,91.113,166.113z"/>
	<path d="M495.088,241.113h-28.975c-41.367,0-75-33.647-75-75v-45H281.975l47.175,82.559l-26.074,14.883l-46.963-82.185   l-46.963,82.185l-26.074-14.883l47.175-82.559H121.113v45c0,41.353-33.633,75-75,75H17.139l-10.712,150h241.769l7.917-37.72   l7.917,37.72H505.8L495.088,241.113z"/>
	<path d="M421.113,166.113c0,24.814,20.186,45,45,45h26.829l-6.427-90h-65.402V166.113z"/>
	<polygon points="0,481.113 229.307,481.113 241.901,421.113 4.285,421.113  "/>
	<polygon points="480.088,31.113 32.139,31.113 27.854,91.113 484.373,91.113  "/>
	<polygon points="507.942,421.113 270.326,421.113 282.92,481.113 512.227,481.113  "/>
</g>















</svg>
