<?xml version="1.0" encoding="iso-8859-1"?>
<!-- Generator: Adobe Illustrator 19.0.0, SVG Export Plug-In . SVG Version: 6.00 Build 0)  -->
<svg xmlns="http://www.w3.org/2000/svg" xmlns:xlink="http://www.w3.org/1999/xlink" version="1.1" id="Layer_1" x="0px" y="0px" viewBox="0 0 512 512" style="enable-background:new 0 0 512 512;" xml:space="preserve" width="512" height="512">
<g>
	<path d="M241,105C241,47.109,193.891,0,136,0S31,47.109,31,105c0,37.222,19.834,71.396,51.416,90.161   c-7.998,39.375-7.998,82.303,0,121.678C50.834,335.604,31,369.778,31,407c0,57.891,47.109,105,105,105s105-47.109,105-105   c0-37.222-19.834-71.396-51.416-90.161c7.998-39.375,7.998-82.303,0-121.678C221.166,176.396,241,142.222,241,105z"/>
	<path d="M429.584,316.839c7.998-39.375,7.998-82.303,0-121.678C461.166,176.396,481,142.222,481,105C481,47.109,433.891,0,376,0   S271,47.109,271,105c0,37.222,19.834,71.396,51.416,90.161c-7.998,39.375-7.998,82.303,0,121.678   C290.834,335.604,271,369.778,271,407c0,57.891,47.109,105,105,105s105-47.109,105-105   C481,369.778,461.166,335.604,429.584,316.839z"/>
</g>















</svg>
