<?xml version="1.0" encoding="iso-8859-1"?>
<!-- Generator: Adobe Illustrator 19.0.0, SVG Export Plug-In . SVG Version: 6.00 Build 0)  -->
<svg xmlns="http://www.w3.org/2000/svg" xmlns:xlink="http://www.w3.org/1999/xlink" version="1.1" id="Layer_1" x="0px" y="0px" viewBox="0 0 512 512" style="enable-background:new 0 0 512 512;" xml:space="preserve" width="512" height="512">
<g>
	<path d="M413.503,0h-285c-41.367,0-75,33.647-75,75v195h-30v62h90v-62h-30V75c0-24.814,20.186-45,45-45h285   c34.558,0,63.317,29.583,59.707,66.24c-3.047,30.146-31.143,53.76-63.984,53.76h-25.723v-30c0-33.091-26.924-60-60-60   s-60,26.909-60,60s26.924,60,60,60h30v15c0,8.276-6.738,15-15,15h-90c-24.814,0-45,20.186-45,45v15h-30v62h90v-62h-30v-15   c0-8.276,6.738-15,15-15h90c24.814,0,45-20.186,45-45v-15h25.723c48.047,0,89.268-35.479,93.809-80.771   C508.397,45.729,466.475,0,413.503,0z M353.503,150h-30c-16.553,0-30-13.462-30-30s13.447-30,30-30s30,13.462,30,30V150z"/>
	<path d="M265.891,362h-94.772c-0.884,5.999-12.7,83.936-12.616,90c0,33.091,26.924,60,60,60s60-26.909,60-60.469   C278.589,445.982,266.701,367.49,265.891,362z"/>
	<path d="M115.891,362H21.119c-0.884,5.999-12.7,83.936-12.616,90c0,33.091,26.924,60,60,60s60-26.909,60-60.469   C128.589,445.982,116.701,367.49,115.891,362z"/>
</g>















</svg>
