<?xml version="1.0" encoding="iso-8859-1"?>
<!-- Generator: Adobe Illustrator 19.0.0, SVG Export Plug-In . SVG Version: 6.00 Build 0)  -->
<svg xmlns="http://www.w3.org/2000/svg" xmlns:xlink="http://www.w3.org/1999/xlink" version="1.1" id="Layer_1" x="0px" y="0px" viewBox="0 0 512 512" style="enable-background:new 0 0 512 512;" xml:space="preserve" width="512" height="512">
<g>
	<path d="M271,512h115.811c0,0,9.873-30.282,13.096-39.555c7.859-22.643,15.212-44.524,20.958-66.35   C369.24,417.146,311.701,420.301,271,420.883V512z"/>
	<path d="M111.859,471.742c3.281,9.463,13.33,40.258,13.33,40.258H241v-91.117c-40.708-0.582-98.276-3.739-149.905-14.797   C96.808,427.614,104.096,449.299,111.859,471.742z"/>
	<path d="M256,331c-65.251,0-197.157-6.048-256-50.722V316c0,59.326,167.787,75,256,75s256-15.674,256-75v-35.722   C453.157,324.952,321.251,331,256,331z"/>
	<path d="M35.999,266.8c6.599-9.9,19.303-18.6,34.904-26.1c4.797-10.201,9.895-20.4,16.198-30.601c2.999-4.799,5.101-9.3,7.2-13.799   C54.101,205,16.201,219.099,4.2,240.7C9.902,250.6,20.999,259.3,35.999,266.8z"/>
	<path d="M424.9,210.099c6.302,10.201,11.4,20.4,15.601,30.601h0.297c15.601,7.2,28.305,15.899,35.204,25.8   c15-7.2,26.096-15.899,31.798-25.8c-12.001-21.601-49.9-35.4-90.099-44.399C419.799,200.799,421.901,205.3,424.9,210.099z"/>
	<path d="M112.299,226.599c-3.896,6.301-7.2,12.301-9.899,18.602c-3.3,5.999-6.002,12.299-8.101,18.6   c-2.699,6.599-5.101,13.499-6.899,20.1c47.699,11.4,109.2,17.1,168.6,17.1s120.601-5.7,168.3-17.1   c-1.798-6.601-3.9-13.5-6.599-20.1c-2.098-6.301-4.801-12.601-8.101-18.6c-2.699-6.301-6.002-12.301-9.899-18.602   c0-0.299-0.3-0.899-0.601-1.199C377.501,189.099,373.297,155.2,381.098,121H130.902c8.097,34.2,5.398,65.1-18.003,104.399   C112.599,225.7,112.299,226.3,112.299,226.599z M241,241h30v30h-30V241z"/>
	<path d="M390.209,91c3.947-11.243,20.873-54.934,34.541-91H87.25c13.953,36.82,30.11,78.284,34.541,91H390.209z"/>
</g>















</svg>
