<?xml version="1.0" encoding="iso-8859-1"?>
<!-- Generator: Adobe Illustrator 19.0.0, SVG Export Plug-In . SVG Version: 6.00 Build 0)  -->
<svg xmlns="http://www.w3.org/2000/svg" xmlns:xlink="http://www.w3.org/1999/xlink" version="1.1" id="Layer_1" x="0px" y="0px" viewBox="0 0 512 512" style="enable-background:new 0 0 512 512;" xml:space="preserve" width="512" height="512">
<g>
	<path d="M253.895,305.193c-15.469,7.097-33.934,11.933-51.102,14.077c6.116-16.774,8.489-34.697,6.504-52.712   c-2.607-23.73-12.305-45-26.836-59.971c21.123-23.159,31.084-55.034,26.338-86.909c-6.504-43.77-41.426-79.673-84.873-87.305   c-31.201-5.376-62.607,2.886-86.396,22.896C0.468,86.388,0,123,0,153.618c0,184.548,123.545,309.086,163.887,327.612   c85.267-17.126,152.083-59.174,198.674-121.243C319.446,356.223,281.126,335.785,253.895,305.193z"/>
	<path d="M377,60.718c-74.443,0-135,60.557-135,135s60.557,135,135,135s135-60.557,135-135S451.443,60.718,377,60.718z    M417.488,214.997l23.145,23.143l-21.211,21.211l-23.145-23.143c-12.246,5.859-25.67,6.165-38.555,0l-23.145,23.143l-21.211-21.211   l23.145-23.143c-5.902-12.326-6.128-25.758,0-38.558l-23.145-23.143l21.211-21.211l23.145,23.143   c12.245-5.859,25.67-6.165,38.555,0l23.145-23.143l21.211,21.211l-23.145,23.143C423.39,188.765,423.617,202.197,417.488,214.997z"/>
	<path d="M377,180.718c-8.262,0-15,6.724-15,15s6.738,15,15,15s15-6.724,15-15S385.262,180.718,377,180.718z"/>
</g>















</svg>
