<?xml version="1.0" encoding="iso-8859-1"?>
<!-- Generator: Adobe Illustrator 19.0.0, SVG Export Plug-In . SVG Version: 6.00 Build 0)  -->
<svg xmlns="http://www.w3.org/2000/svg" xmlns:xlink="http://www.w3.org/1999/xlink" version="1.1" id="Layer_1" x="0px" y="0px" viewBox="0 0 512.022 512.022" style="enable-background:new 0 0 512.022 512.022;" xml:space="preserve" width="512" height="512">
<g>
	<path d="M480.495,482.011c-5.98-29.343-29.136-52.502-58.484-58.482V241.011h-61v181h-75v-61h45v-45c0-8.286-6.716-15-15-15h-45   v-90h162.484l21.65,43.403c7.524,14.94,25.517,20.816,40.283,13.433c14.823-7.411,20.829-25.431,13.418-40.254l-29.971-59.985   c-5.156-10.239-15.439-16.597-26.865-16.597h-181v-61h15v-60h-60v60h15v61h-181c-11.426,0-21.709,6.357-26.836,16.582l-30,60   c-7.411,14.823-1.405,32.842,13.418,40.254c15.192,7.596,33.029,1.092,40.254-13.418l21.68-43.418h162.484v90h-45   c-8.287,0-15,6.714-15,15v45h45v61h-75v-181h-61v182.518c-29.348,5.98-52.504,29.139-58.484,58.482H0.011v30h512v-30H480.495z"/>
	<path d="M361.011,121.011h61v-121h-61v30c-62.195,0-18.063,0-45,0v60h45V121.011z"/>
	<path d="M151.011,90.011h45v-60c-26.937,0,17.206,0-45,0v-30h-61v121h61V90.011z"/>
</g>















</svg>
