<?xml version="1.0" encoding="iso-8859-1"?>
<!-- Generator: Adobe Illustrator 19.0.0, SVG Export Plug-In . SVG Version: 6.00 Build 0)  -->
<svg xmlns="http://www.w3.org/2000/svg" xmlns:xlink="http://www.w3.org/1999/xlink" version="1.1" id="Layer_1" x="0px" y="0px" viewBox="0 0 512 512" style="enable-background:new 0 0 512 512;" xml:space="preserve" width="512" height="512">
<g>
	<rect y="211" width="76" height="90"/>
	<rect x="436" y="211" width="76" height="90"/>
	<path d="M136,189.65c-8.438,8.221-18.853,14.011-30,17.543v97.614c11.147,3.532,21.563,9.322,30,17.543V361h30   c0-77.089,0-132.066,0-210h-30V189.65z"/>
	<path d="M376,151h-30c0,78.033,0,132.724,0,210h30v-38.65c8.438-8.221,18.853-14.011,30-17.543v-97.614   c-11.147-3.532-21.563-9.322-30-17.543V151z"/>
	<path d="M286,30c0-16.538-13.447-30-30-30s-30,13.462-30,30v181h-30v90h30v181c0,16.538,13.447,30,30,30s30-13.462,30-30V301h30   v-90h-30V30z"/>
</g>















</svg>
