<?xml version="1.0" encoding="iso-8859-1"?>
<!-- Generator: Adobe Illustrator 19.0.0, SVG Export Plug-In . SVG Version: 6.00 Build 0)  -->
<svg xmlns="http://www.w3.org/2000/svg" xmlns:xlink="http://www.w3.org/1999/xlink" version="1.1" id="Layer_1" x="0px" y="0px" viewBox="0 0 512 512" style="enable-background:new 0 0 512 512;" xml:space="preserve" width="512" height="512">
<g>
	<path d="M120,361.978H75V261.715l7.5,20.751c10.693,29.619,39.053,49.512,70.547,49.512h134.718c4.041,49.336,39.053,75,75.227,75   h31.139c6.709,25.807,30,45,57.869,45c33.076,0,60-26.909,60-60s-26.924-60-60-60c-27.869,0-51.16,19.193-57.869,45h-31.139   c-22.282,0-42.732-15.546-45.146-45H346c24.814,0,45-20.186,45-45s-20.186-45-45-45h-46.516c-7.357-50.75-51.728-90-104.484-90   h-61.011L88.945,35.193C83.496,10.994,59.297-4.167,35.244,1.048C11.045,6.424-4.307,30.506,1.582,56.58L45,178.71v183.268H0v60   h120V361.978z M195,181.978c36.229,0,67.515,25.809,74.484,60H169.307l-23.547-60H195z"/>
	<polygon points="187.874,421.978 279.621,421.978 266.331,361.978 174.595,361.978  "/>
	<path d="M326.635,472.027c-4.343-11.995-15.707-20.048-28.462-20.048H182.915c-11.14,0-21.965,5.878-26.572,16.024   c-2.014,4.444-3.596,9.113-4.68,13.976H120v-30H0c0,21.712,0,38.288,0,60c170.128,0,318.062,0,512,0v-30H329.301   C328.59,478.589,327.792,475.227,326.635,472.027z"/>
</g>















</svg>
