<?xml version="1.0" encoding="iso-8859-1"?>
<!-- Generator: Adobe Illustrator 19.0.0, SVG Export Plug-In . SVG Version: 6.00 Build 0)  -->
<svg xmlns="http://www.w3.org/2000/svg" xmlns:xlink="http://www.w3.org/1999/xlink" version="1.1" id="Layer_1" x="0px" y="0px" viewBox="0 0 512 512" style="enable-background:new 0 0 512 512;" xml:space="preserve" width="512" height="512">
<g>
	<path d="M341.237,0c-55.604,0-94.893,0-150,0v62.763c-17.424,6.213-30,22.707-30,42.237v15c54.279,0,180,0,180,0   c33.135,0,60-26.863,60-60S374.372,0,341.237,0z M341.237,90h-32.769c-4.556-12.642-14.535-22.709-27.231-27.237V30h60   c16.567,0,30,13.431,30,30S357.805,90,341.237,90z"/>
	<path d="M349.03,264.789c4.292-7.361,7.192-15.3,9.111-23.789h-244.9c2.311,8.439,5.823,16.351,10.583,24.683   c10.693,18.691,10.693,18.691-2.051,42.466c-7.57,14.086-9.976,32.895-9.888,52.852h248.496c0.264-20.081-2.109-38.831-9.36-52.383   C337.839,283.964,337.839,283.964,349.03,264.789z"/>
	<path d="M133.347,480.594C139.265,499.373,156.521,512,176.237,512c11.565,0,22.02-4.508,30-11.704   c7.98,7.196,18.435,11.704,30,11.704s22.02-4.508,30-11.704c7.98,7.196,18.435,11.704,30,11.704   c19.717,0,36.973-12.627,42.891-31.392c0.93-2.917,13.967-45.716,19.186-89.608H113.751   C118.134,428.013,128.403,465.021,133.347,480.594z"/>
	<path d="M359.387,204.646C356.377,174.101,330.251,150,299.555,150H171.184c-28.894,0-54.32,21.513-59.019,50.017   c-0.637,3.86-1.117,7.564-1.403,10.983h249.13C359.76,208.872,359.592,206.754,359.387,204.646z"/>
</g>















</svg>
