<?xml version="1.0" encoding="iso-8859-1"?>
<!-- Generator: Adobe Illustrator 19.0.0, SVG Export Plug-In . SVG Version: 6.00 Build 0)  -->
<svg xmlns="http://www.w3.org/2000/svg" xmlns:xlink="http://www.w3.org/1999/xlink" version="1.1" id="Layer_1" x="0px" y="0px" viewBox="0 0 512.025 512.025" style="enable-background:new 0 0 512.025 512.025;" xml:space="preserve" width="512" height="512">
<g>
	<path d="M391.025,196.013c-6.306,0-12.546,0.952-18.772,2.113c7.244-11.99,17.38-22.145,30.227-28.568l10.254-5.127l-13.418-26.836   l-10.254,5.127c-24.932,12.466-43.114,34.484-51.914,60.449c-11.832-4.356-23.884-7.158-36.123-7.158c-66.182,0-120,60.557-120,135   c0,74.736,53.525,165,120,165c15.293,0,30.41-3.428,45-10.21c14.59,6.782,29.707,10.21,45,10.21c66.475,0,121-90.264,121-165   C512.025,256.569,457.207,196.013,391.025,196.013z"/>
	<path d="M151.025,331.013c0-87.64,62.49-159.335,140.999-164.498l0.802-12.028c-5.314,3.171-10.836,6.053-16.761,8.289   c-34.98,13.213-74.766,6.65-103.711-17.139l-31.699-26.074c-27.598-22.676-67.646-22.676-95.244,0L8.903,149.575l17.091,256.437   h138.618C155.98,381.715,151.025,356.018,151.025,331.013z M61.025,226.013h30v30h-30V226.013z M91.025,376.013h-30v-30h30V376.013   z M121.025,316.013h-30v-30h30V316.013z"/>
	<path d="M177.722,436.013H27.993l3.999,60h192.393C205.627,480.344,189.91,459.408,177.722,436.013z"/>
	<path d="M159.697,96.389l31.699,26.074c20.713,16.992,49.102,21.68,74.092,12.231c11.895-4.484,21.804-12.27,30.114-21.898   l6.449-96.784H0l6.449,96.751l19.918-16.375C64.98,64.631,121.025,64.631,159.697,96.389z"/>
</g>















</svg>
