<?xml version="1.0" encoding="iso-8859-1"?>
<!-- Generator: Adobe Illustrator 19.0.0, SVG Export Plug-In . SVG Version: 6.00 Build 0)  -->
<svg xmlns="http://www.w3.org/2000/svg" xmlns:xlink="http://www.w3.org/1999/xlink" version="1.1" id="Layer_1" x="0px" y="0px" viewBox="0 0 512 512" style="enable-background:new 0 0 512 512;" xml:space="preserve" width="512" height="512">
<g>
	<path d="M356.17,174.65l-6.05,43.363l57.341,20.892l9.221-65.545C471.684,156.29,512,105.542,512,45c0-24.814-20.186-45-45-45   s-45,20.186-45,45s-20.186,45-45,45s-45,20.186-45,45C332,152.26,341.873,167.104,356.17,174.65z"/>
	<path d="M60,120h8.708l8.145,41.783C94.966,154.926,114.514,151,135,151c0.103,0,0.205,0.027,0.308,0.027L129.302,120H165   c24.814,0,45-20.186,45-45c0-19.878-13.33-37.646-32.373-43.198L76.816,2.402C71.367,0.806,65.713,0,60,0C26.924,0,0,26.909,0,60   S26.924,120,60,120z"/>
	<path d="M135,361c6.929,0,13.411-1.703,19.277-4.51l-29.883-29.885l21.211-21.211l29.883,29.885   C178.297,329.412,180,322.927,180,316c0-24.814-20.186-45-45-45s-45,20.186-45,45S110.186,361,135,361z"/>
	<path d="M105,421h317c33.135,0,60-26.863,60-60c0-37.69-23.789-71.689-59.209-84.58l-241.564-87.281   C166.432,183.748,150.879,181,135,181C60.557,181,0,241.557,0,316c0,0.02,0,0.04,0,0.059C0.026,374.037,47.021,421,105,421z    M392,361h30v30h-30V361z M332,361h30v30h-30V361z M270,361h30v30h-30V361z M135,241c41.367,0,75,33.647,75,75   c0,15.26-4.636,29.438-12.495,41.296l3.706,3.704H240v30h-51.211l-12.495-12.493C164.44,386.366,150.264,391,135,391   c-41.367,0-75-33.647-75-75S93.633,241,135,241z"/>
	<path d="M467,452H45c-24.851,0-45,20.147-45,45v15h512v-15C511.993,472.129,491.851,452,467,452z"/>
</g>















</svg>
