<?xml version="1.0" encoding="iso-8859-1"?>
<!-- Generator: Adobe Illustrator 19.0.0, SVG Export Plug-In . SVG Version: 6.00 Build 0)  -->
<svg xmlns="http://www.w3.org/2000/svg" xmlns:xlink="http://www.w3.org/1999/xlink" version="1.1" id="Layer_1" x="0px" y="0px" viewBox="0 0 512 512" style="enable-background:new 0 0 512 512;" xml:space="preserve" width="512" height="512">
<g>
	<polygon points="0,0 0,30 241,30 241,60 211,60 211,121 301,121 301,60 271,60 271,30 512,30 512,0  "/>
	<path d="M256,482c17.93,0,45-60.824,45-151c0-64.702-13.623-121.699-22.617-159.434c-1.86-7.793-3.428-14.528-4.739-20.566h-35.288   c-1.311,6.039-2.878,12.773-4.739,20.566C224.623,209.301,211,266.298,211,331C211,421.176,238.07,482,256,482z"/>
	<path d="M181,331c0-68.232,14.121-127.31,23.438-166.392c1.208-5.037,2.227-9.357,3.208-13.608h-11.653l-72.063,96.064   C102.396,275.79,91,309.994,91,346c0,90.981,74.033,166,165,166C206.752,512,181,420.443,181,331z"/>
	<path d="M316.007,151h-11.653c0.981,4.252,2,8.571,3.208,13.608C316.879,203.69,331,262.768,331,331c0,89.443-25.752,181-75,181   c90.967,0,165-75.019,165-166c0-36.006-11.396-70.21-32.93-98.921L316.007,151z"/>
</g>















</svg>
