<?xml version="1.0" encoding="iso-8859-1"?>
<!-- Generator: Adobe Illustrator 19.0.0, SVG Export Plug-In . SVG Version: 6.00 Build 0)  -->
<svg xmlns="http://www.w3.org/2000/svg" xmlns:xlink="http://www.w3.org/1999/xlink" version="1.1" id="Layer_1" x="0px" y="0px" viewBox="0 0 512 512" style="enable-background:new 0 0 512 512;" xml:space="preserve" width="512" height="512">
<g>
	<path d="M389.484,271c-2.915-25.909-12.986-49.429-28.477-68.798l-20.164,20.151l-21.211-21.211l20.16-20.151   c-19.369-15.491-42.887-25.56-68.793-28.475V181h-30v-28.484c-25.909,2.915-49.431,12.986-68.796,28.478l20.164,20.147   l-21.211,21.211l-20.164-20.147c-15.491,19.367-25.562,42.887-28.477,68.795H151v30h-28.484   c2.915,25.908,12.986,49.427,28.477,68.795l20.164-20.147l21.211,21.211l-20.164,20.147c19.365,15.493,42.887,25.563,68.796,28.478   V391h30v28.484c25.906-2.915,49.424-12.984,68.793-28.475l-20.16-20.151l21.211-21.211l20.164,20.151   c15.491-19.369,25.562-42.889,28.477-68.798H361v-30H389.484z M331,301h-90v-90h30v60h60V301z"/>
	<path d="M446.327,116.897c9.364,10.514,18.146,21.511,25.62,33.327l25.371-16.025c-11.309-17.9-24.727-34.644-39.814-49.717   c-15.117-15.132-31.846-28.521-49.717-39.8l-15.996,25.371c11.788,7.452,22.793,16.243,33.329,25.631l-21.134,21.134   C374.341,90.841,339.101,73.213,301,65.514V30h30V0H181v30h30v35.514c-38.101,7.7-73.341,25.327-102.986,51.304L86.88,95.684   c10.536-9.388,21.541-18.179,33.329-25.631l-15.996-25.371c-17.871,11.279-34.6,24.668-49.717,39.8   c-15.088,15.073-28.506,31.816-39.814,49.717l25.371,16.025c7.474-11.816,16.256-22.813,25.62-33.327L86.8,138.025   C50.845,179.032,31,230.942,31,286c0,60.103,23.408,116.616,65.889,159.097C139.428,487.592,195.912,512,256,512   s116.572-24.408,159.111-66.903C457.592,402.616,481,346.103,481,286c0-55.058-19.845-106.968-55.8-147.975L446.327,116.897z    M256,451c-90.967,0-165-74.019-165-165s74.033-165,165-165s165,74.019,165,165S346.967,451,256,451z"/>
</g>















</svg>
