<?xml version="1.0" encoding="iso-8859-1"?>
<!-- Generator: Adobe Illustrator 19.0.0, SVG Export Plug-In . SVG Version: 6.00 Build 0)  -->
<svg xmlns="http://www.w3.org/2000/svg" xmlns:xlink="http://www.w3.org/1999/xlink" version="1.1" id="Layer_1" x="0px" y="0px" viewBox="0 0 512 512" style="enable-background:new 0 0 512 512;" xml:space="preserve" width="512" height="512">
<g>
	<path d="M256,347c-24.814,0-45,20.186-45,45s20.186,45,45,45s45-20.186,45-45S280.814,347,256,347z"/>
	<path d="M256,272c-66.182,0-120,53.833-120,120s53.818,120,120,120s120-53.833,120-120S322.182,272,256,272z M256,467   c-41.367,0-75-33.647-75-75s33.633-75,75-75s75,33.647,75,75S297.367,467,256,467z"/>
	<polygon points="238.327,84.562 173.324,0 46,0 173.496,171.004  "/>
	<path d="M196,254.715c18.406-8.08,38.646-12.715,60-12.715s41.594,4.634,60,12.715V211H196V254.715z"/>
	<polygon points="331,181 466,0 338.5,0 203.5,181  "/>
</g>















</svg>
