<?xml version="1.0" encoding="iso-8859-1"?>
<!-- Generator: Adobe Illustrator 19.0.0, SVG Export Plug-In . SVG Version: 6.00 Build 0)  -->
<svg xmlns="http://www.w3.org/2000/svg" xmlns:xlink="http://www.w3.org/1999/xlink" version="1.1" id="Layer_1" x="0px" y="0px" viewBox="0 0 512 512" style="enable-background:new 0 0 512 512;" xml:space="preserve" width="512" height="512">
<g>
	<path d="M437,362c-41.367,0-75,33.647-75,75s33.633,75,75,75s75-33.647,75-75S478.367,362,437,362z M452,451.927l-30,0.146   l-0.146-30l30-0.22l0.146,15h-0.088L452,451.927z"/>
	<path d="M75,362c-41.367,0-75,33.647-75,75s33.633,75,75,75s75-33.647,75-75S116.367,362,75,362z M90,452H60v-30h30V452z"/>
	<path d="M178.451,422h155.098c3.402-23.309,14.084-44.258,30.201-60H148.25C164.366,377.742,175.049,398.691,178.451,422z"/>
	<path d="M178.451,452c-3.402,23.309-14.084,44.258-30.201,60H363.75c-16.117-15.742-26.799-36.691-30.201-60H178.451z"/>
	<path d="M467,0c-24.814,0-45,20.186-45,45v30c0,24.814-20.186,45-45,45h-60c-19.53,0-36.024,12.578-42.239,30H211v30h63.761   c6.215,17.422,22.709,30,42.239,30h60c74.443,0,135-60.557,135-135V45C512,20.186,491.814,0,467,0z"/>
	<path d="M449.85,222.819C427.845,233.712,403.169,240,377,240h-32.234l-19.907,92h126.072L449.85,222.819z"/>
</g>















</svg>
