<?xml version="1.0" encoding="iso-8859-1"?>
<!-- Generator: Adobe Illustrator 19.0.0, SVG Export Plug-In . SVG Version: 6.00 Build 0)  -->
<svg xmlns="http://www.w3.org/2000/svg" xmlns:xlink="http://www.w3.org/1999/xlink" version="1.1" id="Layer_1" x="0px" y="0px" viewBox="0 0 512.117 512.117" style="enable-background:new 0 0 512.117 512.117;" xml:space="preserve" width="512" height="512">
<g>
	<polygon points="193.86,212.132 299.926,318.198 321.14,296.985 257.5,233.345 278.713,212.132 342.353,275.772 363.566,254.558    257.5,148.492  "/>
	<polygon points="299.926,63.64 278.713,84.853 299.926,106.066 278.713,127.279 384.779,233.345 405.992,212.132 427.206,233.345    448.419,212.132  "/>
	<polygon points="95.19,310.802 73.977,416.868 0.058,490.904 21.272,512.117 95.19,438.082 201.256,416.868 236.287,381.838    172.647,318.198 193.86,296.985 257.5,360.624 278.713,339.411 172.647,233.345  "/>
	<polygon points="363.566,84.853 427.206,148.492 469.632,106.066 490.845,127.279 512.058,106.066 405.992,0 384.779,21.213    405.992,42.426  "/>
</g>















</svg>
