<?xml version="1.0" encoding="iso-8859-1"?>
<!-- Generator: Adobe Illustrator 19.0.0, SVG Export Plug-In . SVG Version: 6.00 Build 0)  -->
<svg xmlns="http://www.w3.org/2000/svg" xmlns:xlink="http://www.w3.org/1999/xlink" version="1.1" id="Layer_1" x="0px" y="0px" viewBox="0 0 512.015 512.015" style="enable-background:new 0 0 512.015 512.015;" xml:space="preserve" width="512" height="512">
<g>
	<path d="M240.015,152.008h-30v-30h-53.73c-77.49,0-143.936,54.756-154.629,127.368c-5.98,40.772,4.413,80.482,28.359,112.315   v75.317c0,41.353,33.633,75,75,75h180c24.814,0,45-20.186,45-45s-20.186-45-45-45h-13.74c-44.004,0-64.395,16.055-90.176,36.372   c-33.492,26.327-29.726,23.628-76.084,23.628c-24.814,0-45-20.186-45-45v-45.786c26.056,19.764,57.078,30.8,89.854,30.8   c9.346,0,18.838-0.85,28.33-2.593c50.654-9.258,122.197-56.543,121.875-149.531l120.941-17.064V122.008h-181V152.008z    M199.644,481.949c24.521-19.307,37.998-29.941,71.631-29.941h13.74c8.262,0,15,6.724,15,15s-6.738,15-15,15h-85.459   C199.585,481.993,199.615,481.964,199.644,481.949z M150.015,332.008c-33.076,0-60-26.909-60-60s26.924-60,60-60s60,26.909,60,60   S183.091,332.008,150.015,332.008z"/>
	<path d="M150.015,242.008c-16.553,0-30,13.462-30,30s13.447,30,30,30s30-13.462,30-30S166.568,242.008,150.015,242.008z"/>
	<polygon points="451.015,122.008 451.015,248.566 512.015,240.03 512.015,122.008  "/>
	<rect x="210.015" y="0.008" width="30" height="60"/>
	<rect x="110.695" y="22.509" transform="matrix(0.7071 0.7071 -0.7071 0.7071 68.2636 -89.7877)" width="63.64" height="29.997"/>
	<rect x="292.517" y="5.688" transform="matrix(0.7071 0.7071 -0.7071 0.7071 116.591 -206.4603)" width="29.997" height="63.64"/>
</g>















</svg>
