<?xml version="1.0" encoding="iso-8859-1"?>
<!-- Generator: Adobe Illustrator 19.0.0, SVG Export Plug-In . SVG Version: 6.00 Build 0)  -->
<svg xmlns="http://www.w3.org/2000/svg" xmlns:xlink="http://www.w3.org/1999/xlink" version="1.1" id="Layer_1" x="0px" y="0px" viewBox="0 0 512 512" style="enable-background:new 0 0 512 512;" xml:space="preserve" width="512" height="512">
<g>
	<path d="M331,451h30v-30h-30v-30h30v-30c0-16.569-13.433-30-30-30H181c-16.567,0-30,13.431-30,30v30h30v30h-30v30h30v31H61v30h390   v-30H331V451z M211,391h90v30h-90V391z M211,451h90v31h-90V451z"/>
	<polygon points="481,121 451,121 451,61 331,61 331,91 421,91 421,121 391,121 391,271 421,271 421,301 391,301 391,331 451,331    451,271 481,271  "/>
	<rect x="181" width="150" height="61"/>
	<rect x="271" y="91" width="60" height="210"/>
	<rect x="181" y="91" width="60" height="210"/>
	<polygon points="61,121 31,121 31,271 61,271 61,331 121,331 121,301 91,301 91,271 121,271 121,121 91,121 91,91 181,91 181,61    61,61  "/>
</g>















</svg>
