<?xml version="1.0" encoding="iso-8859-1"?>
<!-- Generator: Adobe Illustrator 19.0.0, SVG Export Plug-In . SVG Version: 6.00 Build 0)  -->
<svg xmlns="http://www.w3.org/2000/svg" xmlns:xlink="http://www.w3.org/1999/xlink" version="1.1" id="Layer_1" x="0px" y="0px" viewBox="0 0 512 512" style="enable-background:new 0 0 512 512;" xml:space="preserve" width="512" height="512">
<g>
	<path d="M271,452c0,33.091,26.924,60,60,60h30V392h-30C297.924,392,271,418.909,271,452z"/>
	<path d="M421,392h-30v120h30c33.076,0,60-26.909,60-60S454.076,392,421,392z"/>
	<rect x="61" width="240" height="60"/>
	<rect x="91" y="90" width="180" height="30"/>
	<path d="M331,362V220.459L284.03,150H77.97L31,220.459V242h180v210H31v60h233.408C250.016,496.041,241,475.134,241,452   C241,402.371,281.371,362,331,362z"/>
	<polygon points="181,272 31,272 31,302 151,302 151,332 31,332 31,362 151,362 151,392 31,392 31,422 181,422  "/>
</g>















</svg>
