<?xml version="1.0" encoding="iso-8859-1"?>
<!-- Generator: Adobe Illustrator 19.0.0, SVG Export Plug-In . SVG Version: 6.00 Build 0)  -->
<svg xmlns="http://www.w3.org/2000/svg" xmlns:xlink="http://www.w3.org/1999/xlink" version="1.1" id="Layer_1" x="0px" y="0px" viewBox="0 0 512 512" style="enable-background:new 0 0 512 512;" xml:space="preserve" width="512" height="512">
<g>
	<path d="M135,361c-16.553,0-30,13.462-30,30s13.447,30,30,30s30-13.462,30-30S151.553,361,135,361z"/>
	<polygon points="120,210 150,210 150,240 180,240 180,90 90,90 90,240 120,240  "/>
	<path d="M437,150c-24.814,0-45,20.186-45,45v60c0,19.53,12.576,36.024,30,42.237V331c0,16.538-13.447,30-30,30s-30-13.462-30-30   V147.237c17.424-6.213,30-22.707,30-42.237V90h30V0h-75c-24.814,0-45,20.186-45,45v60c0,19.53,12.576,36.024,30,42.237V331   c0,27.88,19.2,51.161,45,57.869V436c0,8.276-6.738,15-15,15h-92V0H0v512h270v-31h92c24.814,0,45-20.186,45-45v-47.131   c25.8-6.707,45-29.989,45-57.869v-33.763c17.424-6.213,30-22.707,30-42.237v-15h30v-90H437z M135,451c-33.076,0-60-26.909-60-60   s26.924-60,60-60s60,26.909,60,60S168.076,451,135,451z M210,270H60V60h150V270z"/>
</g>















</svg>
