<?xml version="1.0" encoding="iso-8859-1"?>
<!-- Generator: Adobe Illustrator 19.0.0, SVG Export Plug-In . SVG Version: 6.00 Build 0)  -->
<svg xmlns="http://www.w3.org/2000/svg" xmlns:xlink="http://www.w3.org/1999/xlink" version="1.1" id="Layer_1" x="0px" y="0px" viewBox="0 0 511.795 511.795" style="enable-background:new 0 0 511.795 511.795;" xml:space="preserve" width="512" height="512">
<g>
	<polygon points="330.897,270.894 330.897,240.894 262.116,240.894 292.116,270.894  "/>
	<path d="M436.22,75.586C386.503,25.884,321.2,0.033,255.897,0.033c-65.098,0-124.211,25.461-169.2,65.444l145.419,145.417h128.782   v-15c0-8.276-6.738-15-15-15h-60c-24.814,0-45-20.186-45-45s20.186-45,45-45h15v30h-15c-8.262,0-15,6.724-15,15s6.738,15,15,15h60   c24.814,0,45,20.186,45,45v15h30v90h-98.782L446.32,425.092c40.005-45.002,65.475-105.125,65.475-170.199   C511.795,189.595,485.937,125.296,436.22,75.586z"/>
	<rect x="360.897" y="240.894" width="30" height="30"/>
	<path d="M90.897,300.894v-90h98.796L65.482,86.686C25.474,131.684,0,190.813,0,255.894c0,141.057,114.954,255.868,255.897,255.868   c65.101,0,124.219-25.47,169.211-65.459l-145.415-145.41H90.897z"/>
	<polygon points="210.897,240.894 210.897,270.894 249.694,270.894 219.694,240.894  "/>
	<rect x="120.897" y="240.894" width="60" height="30"/>
</g>















</svg>
