<?xml version="1.0" encoding="iso-8859-1"?>
<!-- Generator: Adobe Illustrator 19.0.0, SVG Export Plug-In . SVG Version: 6.00 Build 0)  -->
<svg xmlns="http://www.w3.org/2000/svg" xmlns:xlink="http://www.w3.org/1999/xlink" version="1.1" id="Layer_1" x="0px" y="0px" viewBox="0 0 512 512" style="enable-background:new 0 0 512 512;" xml:space="preserve" width="512" height="512">
<g>
	<rect x="91" y="391" width="240" height="60"/>
	<path d="M391,186.083V136C391,61.557,330.443,0,256,0h-90C91.557,0,31,61.557,31,136v30c0,5.123,0.667,10.117,1.714,15H151   c22.104,0,41.243,12.153,51.654,30H226c41.367,0,75-33.647,75-75v-15h30v15c0,57.891-47.109,105-105,105h-15   c0,33.091-26.924,60-60,60H91v-30h60c16.553,0,30-13.462,30-30s-13.447-30-30-30H58.43c-25.772,0-48.361,17.348-54.951,42.263   C1.257,261.666,0,267.834,0,267.836C0,311.101,22.026,338.712,55.459,361h287.296C375.41,304.906,391,248.689,391,186.083z"/>
	<polygon points="361,481 211,481 211,512 451,512 451,451 361,451  "/>
	<path d="M404.271,64.087C414.877,85.858,421,110.2,421,136v50.083c0,25.745-3.314,50.541-8.364,74.954   C435.414,248.15,451,223.984,451,196v-15h30v15c0,48.344-33.029,88.757-77.578,100.908c-12.733,40.11-24.957,62.379-42.422,92.38   V421h101.755C495.41,364.906,512,308.689,512,246.083V196C512,131.265,465.165,77.132,404.271,64.087z"/>
</g>















</svg>
