<?xml version="1.0" encoding="iso-8859-1"?>
<!-- Generator: Adobe Illustrator 19.0.0, SVG Export Plug-In . SVG Version: 6.00 Build 0)  -->
<svg xmlns="http://www.w3.org/2000/svg" xmlns:xlink="http://www.w3.org/1999/xlink" version="1.1" id="Layer_1" x="0px" y="0px" viewBox="0 0 512 512" style="enable-background:new 0 0 512 512;" xml:space="preserve" width="512" height="512">
<g>
	<path d="M360.487,266H361 M361,259.462V0h-45v151h-30V0h-45v151h-30V0h-45v151h-30V0H91v211H61v-90H16v126.493L64.973,332h271.838   L361,259.462z M286,272H166v-30h120V272z"/>
	<path d="M76,362v90h75.381C141.863,439.426,136,423.948,136,407s5.863-32.426,15.381-45H76z"/>
	<path d="M331,452v-90H211c-24.851,0-45,20.147-45,45s20.149,45,45,45H331z"/>
	<polygon points="451,61 451,211 421,211 421,61 391,61 391,264.371 378.443,302 421,302 421,332 368.434,332 361,354.275 361,392    471.812,392 496,319 496,61  "/>
	<path d="M361,482h-57.246c6.196,17.437,22.683,30,42.246,30h120v-90H361V482z"/>
	<path d="M211,482v30h75.381c-6.614-8.738-11.298-18.94-13.641-30H211z"/>
</g>















</svg>
