<?xml version="1.0" encoding="iso-8859-1"?>
<!-- Generator: Adobe Illustrator 19.0.0, SVG Export Plug-In . SVG Version: 6.00 Build 0)  -->
<svg xmlns="http://www.w3.org/2000/svg" xmlns:xlink="http://www.w3.org/1999/xlink" version="1.1" id="Layer_1" x="0px" y="0px" viewBox="0 0 512 512" style="enable-background:new 0 0 512 512;" xml:space="preserve" width="512" height="512">
<g>
	<path d="M467,151h-45v-30c0-33.091-26.924-60-60-60s-60,26.909-60,60v30h-92v-30c0-33.091-26.924-60-60-60s-60,26.909-60,60v30H45   c-24.814,0-45,20.186-45,45v15h512v-15C512,171.186,491.814,151,467,151z M180,151h-60v-30c0-16.538,13.447-30,30-30   s30,13.462,30,30V151z M392,151h-60v-30c0-16.538,13.447-30,30-30s30,13.462,30,30V151z"/>
	<path d="M0,301h109.614l-45,120H0v30h512v-30h-64.614l-45-120H512v-60H0V301z M201.636,301h108.729l22.5,60H179.136L201.636,301z    M167.886,391h176.229l11.25,30H156.636L167.886,391z"/>
</g>















</svg>
