<?xml version="1.0" encoding="iso-8859-1"?>
<!-- Generator: Adobe Illustrator 19.0.0, SVG Export Plug-In . SVG Version: 6.00 Build 0)  -->
<svg xmlns="http://www.w3.org/2000/svg" xmlns:xlink="http://www.w3.org/1999/xlink" version="1.1" id="Layer_1" x="0px" y="0px" viewBox="0 0 512.03 512.03" style="enable-background:new 0 0 512.03 512.03;" xml:space="preserve" width="512" height="512">
<g>
	<path d="M151.015,159.719v81.164h90v120h-57.422c6.182,17.461,22.852,30,42.422,30h60c19.57,0,36.24-12.539,42.422-30h-57.422v-120   h90v-81.164C289.648,143.489,222.382,143.489,151.015,159.719z"/>
	<path d="M471.933,44.099C334.706-14.7,177.323-14.7,40.097,44.099l-9.082,3.896v209.733c0,94.877,63.872,231.922,225,254.301   c154.396-21.444,225-151.755,225-254.301V47.996L471.933,44.099z M391.015,270.883h-90v60h60v15c0,41.353-33.633,75-75,75h-60   c-41.367,0-75-33.647-75-75v-15h60v-60h-90V136.165l11.367-2.827c83.203-20.801,164.063-20.801,247.266,0l11.367,2.827V270.883z"/>
</g>















</svg>
