<?xml version="1.0" encoding="iso-8859-1"?>
<!-- Generator: Adobe Illustrator 19.0.0, SVG Export Plug-In . SVG Version: 6.00 Build 0)  -->
<svg xmlns="http://www.w3.org/2000/svg" xmlns:xlink="http://www.w3.org/1999/xlink" version="1.1" id="Layer_1" x="0px" y="0px" viewBox="0 0 512 512" style="enable-background:new 0 0 512 512;" xml:space="preserve" width="512" height="512">
<g>
	<path d="M181,281.783c-24.001-12.316-44.59-30.286-60-52.216V300h60V281.783z"/>
	<polygon points="91,390 121,390 121,512 181,512 181,390 211,390 211,330 91,330  "/>
	<path d="M301,194.623C288.428,204.139,272.952,210,256,210c-41.367,0-75-33.647-75-75s33.633-75,75-75s75,33.647,75,75v165h60   c0-66.242,0-113.152,0-165C391,60.557,330.443,0,256,0S121,60.557,121,135s60.557,135,135,135c15.421,0,30.593-2.904,45-7.996   V194.623z"/>
	<polygon points="301,330 301,390 331,390 331,512 391,512 391,390 421,390 421,330  "/>
</g>















</svg>
