<?xml version="1.0" encoding="iso-8859-1"?>
<!-- Generator: Adobe Illustrator 19.0.0, SVG Export Plug-In . SVG Version: 6.00 Build 0)  -->
<svg xmlns="http://www.w3.org/2000/svg" xmlns:xlink="http://www.w3.org/1999/xlink" version="1.1" id="Layer_1" x="0px" y="0px" viewBox="0 0 511.795 511.795" style="enable-background:new 0 0 511.795 511.795;" xml:space="preserve" width="512" height="512">
<g>
	<path d="M121.952,210.894h67.742l-47.666-47.662C131.734,176.97,124.508,193.144,121.952,210.894z"/>
	<path d="M285.897,120.894h-60c-23.529,0-45.033,8.095-62.563,21.222l68.782,68.778h157.727   C382.519,160.078,338.69,120.894,285.897,120.894z"/>
	<path d="M420.897,255.894c0-8.276-6.738-15-15-15H262.116l30,30h113.782C414.159,270.894,420.897,264.17,420.897,255.894z"/>
	<path d="M436.22,75.586C386.503,25.884,321.2,0.033,255.897,0.033c-65.098,0-124.211,25.463-169.204,65.446l55.408,55.406   c23.101-18.474,51.987-29.991,83.796-29.991h60c70.115,0,127.244,53.917,133.726,122.366c18.076,5.843,31.274,22.635,31.274,42.634   s-13.198,36.791-31.278,42.634c-3.175,26.016-15.667,48.966-34.325,65.544l61.025,61.022c40.005-45,65.475-104.127,65.475-169.2   C511.795,190.595,485.937,125.296,436.22,75.586z"/>
	<path d="M315.897,390.894h-120c-53.562,0-97.394-40.481-103.722-92.366c-18.08-5.843-31.278-22.635-31.278-42.634   s13.198-36.791,31.274-42.634c2.542-26.832,12.759-51.205,28.718-71.164L65.482,86.688C25.47,131.686,0,190.813,0,255.894   c0,141.057,114.954,255.868,255.897,255.868c65.101,0,124.219-25.47,169.211-65.46l-65.332-65.33   C346.381,387.184,331.608,390.894,315.897,390.894z"/>
	<path d="M90.897,255.894c0,8.276,6.738,15,15,15h143.796l-30-30H105.897C97.636,240.894,90.897,247.617,90.897,255.894z"/>
	<path d="M389.403,300.894h-67.288l42.169,42.167C376.886,332.379,385.983,317.672,389.403,300.894z"/>
	<path d="M122.392,300.894c6.973,34.189,37.295,60,73.506,60h120c7.189,0,14.041-1.271,20.629-3.17l-56.832-56.83H122.392z"/>
</g>















</svg>
